<svg xmlns="http://www.w3.org/2000/svg" width="15.999" height="10" viewBox="0 0 15.999 10">
  <path id="Shape_7" data-name="Shape 7" d="M1268,2358.695l-.053-.011,4.922-4.218,2.129,1.9,2.137-1.885,4.82,4.217Zm9.892-4.886a63.789,63.789,0,0,0,5.039-4.448.946.946,0,0,1,.068.335v8a.968.968,0,0,1-.132.469C1282.97,2349.55,1277.988,2353.727,1277.892,2353.808ZM1267,2357.7v-8a1.021,1.021,0,0,1,.077-.387l5.037,4.487c-5.08,4.181-5.023,4.307-5.023,4.307A.985.985,0,0,1,1267,2357.7Zm16,0h0Zm-15.086-8.983.086-.017h14l.141.029-7.139,6.3Zm9.978,5.1h0ZM1267,2349.695Z" transform="translate(-1267 -2348.695)" fill="#afa5a3"/>
</svg>
