<svg xmlns="http://www.w3.org/2000/svg" width="16" height="16" viewBox="0 0 16 16">
  <path id="Shape_6" data-name="Shape 6" d="M1232.818,2361.695h-13.635a1.167,1.167,0,0,1-1.183-1.147v-13.707a1.167,1.167,0,0,1,1.183-1.147h13.635a1.166,1.166,0,0,1,1.182,1.147v13.707A1.166,1.166,0,0,1,1232.818,2361.695Zm-12.389-9.834v7.229h2.42v-7.229Zm7.5,1.729c.8,0,1.223.565,1.223,1.635v3.865h2.418v-4.143c0-2.036-1.041-3.252-2.785-3.252a2.414,2.414,0,0,0-2.178,1.194v-1.025h-2.415c.028.617.005,6.1,0,7.2v.029h2.415v-4.035a1.561,1.561,0,0,1,.082-.587A1.342,1.342,0,0,1,1227.925,2353.589Zm-6.267-5.208a1.252,1.252,0,1,0-.031,2.5h.015a1.253,1.253,0,1,0,.016-2.5Z" transform="translate(-1218 -2345.694)" fill="#afa5a3"/>
</svg>
