<svg xmlns="http://www.w3.org/2000/svg" width="16" height="10.781" viewBox="0 0 16 10.781">
  <path id="Shape_5" data-name="Shape 5" d="M1255.187,2352.277a1.948,1.948,0,0,0,1.742-1.015,2.906,2.906,0,0,1-1.887.2c-.027-.126-.057-.248-.087-.357a3.426,3.426,0,0,0-3.393-2.6c.122-.048.247-.1.372-.136.168-.057,1.148-.214.994-.554-.131-.3-1.329.225-1.555.294.3-.109.791-.3.844-.633a2.385,2.385,0,0,0-1.252.581.842.842,0,0,0,.24-.466,7.48,7.48,0,0,0-2.5,3.782,5.916,5.916,0,0,0-1.211-.953,32.154,32.154,0,0,0-4.106-1.767,2.124,2.124,0,0,0,1.368,1.968,3.41,3.41,0,0,0-.984.115c.136.7.583,1.28,1.792,1.559a1.485,1.485,0,0,0-1.1.424,1.869,1.869,0,0,0,1.971.944c-1.227.518-.5,1.477.5,1.334a4.31,4.31,0,0,1-5.934.155c4.027,5.369,12.785,3.177,14.09-2a2.454,2.454,0,0,0,1.91-.705A3.98,3.98,0,0,1,1255.187,2352.277Z" transform="translate(-1241 -2347.483)" fill="#afa5a3"/>
</svg>
